<svg width="512" height="512" viewBox="0 0 512 512" fill="none" xmlns="http://www.w3.org/2000/svg">
<path d="M378.17 150.73C400.78 150.73 419.17 158.9 432.96 175.12C446.75 191.34 455.8 215.41 461.07 250.43C468.83 302.04 461.13 345.54 439.39 372.91C426.59 389.03 409.79 398.35 390.81 399.85C374.56 401.15 350.27 394.56 326.81 355.85C312.12 331.61 300.95 299.41 296.16 267.51C290.37 229 294.68 200.65 309.34 180.86C320.98 165.14 338.88 155.4 362.55 151.86C367.721 151.1 372.942 150.723 378.17 150.73V150.73Z" fill="#572617"/>
<path d="M339 16C352.21 16 365.6 20.23 377.66 28.36C395.063 40.1525 407.109 58.3363 411.18 78.96C414.03 93.62 412.32 105.27 405.96 114.6C395.63 129.75 377.09 133.16 357.47 136.78C355.4 137.16 353.3 137.54 351.17 137.95C346.65 138.81 342.03 139.95 337.55 141.06C320.77 145.2 303.41 149.49 289.08 139.31C279.49 132.51 274.08 120.95 272.46 103.99C270.62 84.42 274.82 64.89 284.29 48.99C294.48 31.88 309.76 20.57 327.29 17.13C331.148 16.377 335.07 15.9985 339 16V16Z" fill="#572617"/>
<path d="M133.83 246.73C139.052 246.748 144.266 247.149 149.43 247.93C173.09 251.43 190.99 261.18 202.63 276.93C217.29 296.72 221.63 325.06 215.81 363.58C211.02 395.51 199.88 427.68 185.26 451.83C161.92 490.4 137.6 497.09 121.26 495.91C102.34 494.53 85.57 485.34 72.75 469.31C50.86 441.94 43.1 398.31 50.89 346.47C56.16 311.47 65.09 287.52 79 271.16C92.91 254.8 111.22 246.73 133.83 246.73Z" fill="#572617"/>
<path d="M173 112C176.921 112 180.832 112.379 184.68 113.13C202.24 116.57 217.52 127.88 227.68 144.99C237.15 160.89 241.35 180.42 239.51 199.99C237.91 216.99 232.51 228.51 222.89 235.32C208.56 245.49 191.2 241.21 174.42 237.06C169.94 235.96 165.32 234.82 160.8 233.95L154.51 232.78C134.88 229.17 116.34 225.78 106.01 210.61C99.6504 201.28 97.9404 189.61 100.79 174.97C104.858 154.342 116.905 136.154 134.31 124.36C146.44 116.22 159.83 112 173 112Z" fill="#572617"/>
</svg>
